<svg width="36" height="36" viewBox="0 0 36 36" fill="none" xmlns="http://www.w3.org/2000/svg">
<path d="M33.6601 18.36C33.6601 17.3067 33.5668 16.3067 33.4068 15.3334H18.3401V21.3467H26.9668C26.5801 23.32 25.4468 24.9867 23.7668 26.12V30.12H28.9134C31.9268 27.3334 33.6601 23.2267 33.6601 18.36Z" fill="#4285F4"/>
<path d="M18.3401 34C22.6601 34 26.2734 32.56 28.9134 30.12L23.7667 26.12C22.3267 27.08 20.5001 27.6667 18.3401 27.6667C14.1667 27.6667 10.6334 24.8533 9.36673 21.0533H4.06006V25.1733C6.68673 30.4 12.0867 34 18.3401 34Z" fill="#34A853"/>
<path d="M9.36675 21.0533C9.03342 20.0933 8.86009 19.0667 8.86009 18C8.86009 16.9333 9.04675 15.9067 9.36675 14.9467V10.8267H4.06009C2.96675 12.9867 2.34009 15.4133 2.34009 18C2.34009 20.5867 2.96675 23.0133 4.06009 25.1733L9.36675 21.0533Z" fill="#FBBC05"/>
<path d="M18.3401 8.33333C20.7001 8.33333 22.8067 9.14667 24.4734 10.7333L29.0334 6.17334C26.2734 3.58667 22.6601 2 18.3401 2C12.0867 2 6.68673 5.6 4.06006 10.8267L9.36673 14.9467C10.6334 11.1467 14.1667 8.33333 18.3401 8.33333Z" fill="#EA4335"/>
</svg>
